# xmcd CD database file
#
# Track frame offsets:
#	150
#	30813
#	49584
#	76350
#	103959
#	140527
#	170471
#
# Disc length: 2711 seconds
#
# Revision: 1
# Processed by: cddbd v1.5.1PL0 Copyright (c) Steve Scherf et al.
# Submitted via: CDex 1.50
#
DISCID=500a9507
DTITLE=Harry Miller - Down South
DYEAR=1983
DGENRE=Jazz
TTITLE0=Down South
TTITLE1=Ikaya
TTITLE2=Deep Down Feeling
TTITLE3=Schooldays
TTITLE4=Opportunities
TTITLE5=Flame Tree
TTITLE6=Mofolo
EXTD=YEAR: 1983
EXTT0=
EXTT1=
EXTT2=
EXTT3=
EXTT4=
EXTT5=
EXTT6=
PLAYORDER=
